<svg id="Folder" xmlns="http://www.w3.org/2000/svg" width="38.064" height="32.607" viewBox="0 0 38.064 32.607">
  <path id="Path_75" data-name="Path 75" d="M31.451,9.435H16.82L14.31,4.689A1.257,1.257,0,0,0,13.206,4H2.269A1.316,1.316,0,0,0,1,5.359v29.89a1.338,1.338,0,0,0,1.037,1.336,1.267,1.267,0,0,0,.232.023,1.274,1.274,0,0,0,1.184-.87L9.484,18.945H31.451a1.316,1.316,0,0,0,1.269-1.359V10.793A1.316,1.316,0,0,0,31.451,9.435Z" transform="translate(-0.999 -4)" fill="#ffa000"/>
  <path id="Path_76" data-name="Path 76" d="M38.841,13.589A1.247,1.247,0,0,0,37.8,13H8.613a1.276,1.276,0,0,0-1.185.87L1.084,31.533a1.441,1.441,0,0,0,.138,1.257,1.247,1.247,0,0,0,1.046.589H31.451a1.276,1.276,0,0,0,1.185-.87L38.98,14.847a1.443,1.443,0,0,0-.139-1.258Z" transform="translate(-1 -0.772)" fill="#f4da2a"/>
</svg>
