<svg xmlns="http://www.w3.org/2000/svg" width="37.023" height="43.447" viewBox="0 0 37.023 43.447">
  <path id="_002-touch" data-name="002-touch" d="M68.357,27.041H61.626V20.623a5.066,5.066,0,1,0-10.132,0V37.394a6.309,6.309,0,0,0,6.3,6.3H68.357a6.309,6.309,0,0,0,6.3-6.3V33.343A6.309,6.309,0,0,0,68.357,27.041Zm3.585,10.353a3.589,3.589,0,0,1-3.585,3.585H57.8a3.589,3.589,0,0,1-3.585-3.585V20.623a2.349,2.349,0,1,1,4.7,0V28.4a1.358,1.358,0,0,0,1.358,1.358h8.089a3.589,3.589,0,0,1,3.585,3.585Zm-24.056-3.78A1.358,1.358,0,0,1,46,33.953a18.509,18.509,0,1,1,28.3-9.867,1.358,1.358,0,1,1-2.6-.783,15.8,15.8,0,1,0-24.145,8.419,1.358,1.358,0,0,1,.339,1.891Zm.76-14.87a7.853,7.853,0,0,0,.674,3.2,1.358,1.358,0,1,1-2.484,1.1,10.63,10.63,0,1,1,19.446,0,1.358,1.358,0,1,1-2.484-1.1,7.915,7.915,0,1,0-15.153-3.2Z" transform="translate(-38.057 -0.25)" fill="#f09920"/>
</svg>
