<svg xmlns="http://www.w3.org/2000/svg" width="33.513" height="43.468" viewBox="0 0 33.513 43.468">
  <path id="_003-label" data-name="003-label" d="M92.139,22.753V42.11A1.358,1.358,0,0,1,90,43.224L75.383,33.042,60.761,43.224a1.358,1.358,0,0,1-2.135-1.115V1.358A1.358,1.358,0,0,1,59.984,0h30.8a1.358,1.358,0,0,1,0,2.717H61.343V39.508l13.264-9.237a1.358,1.358,0,0,1,1.553,0l13.264,9.237V22.753a1.358,1.358,0,0,1,2.717,0ZM90.781,7.543H83.389a1.358,1.358,0,0,0,0,2.717h3.952l-6.255,5.726-4.012-3.191a1.358,1.358,0,0,0-1.762.061L65.74,21.607a1.358,1.358,0,1,0,1.833,2l8.716-7.97L80.3,18.833a1.358,1.358,0,0,0,1.763-.061l7.357-6.734v4.256a1.358,1.358,0,1,0,2.717,0V8.9a1.358,1.358,0,0,0-1.358-1.358Z" transform="translate(-58.626)" fill="#1650ed"/>
</svg>
