<svg xmlns="http://www.w3.org/2000/svg" width="43.468" height="37.38" viewBox="0 0 43.468 37.38">
  <path id="_001-user" data-name="001-user" d="M30.483,56.026A6.413,6.413,0,1,1,36.9,49.612,6.413,6.413,0,0,1,30.483,56.026Zm0-10.11a3.7,3.7,0,1,0,3.7,3.7,3.7,3.7,0,0,0-3.7-3.7Zm-17.5,2.762A6.413,6.413,0,1,1,19.4,42.264a6.413,6.413,0,0,1-6.413,6.413Zm0-10.11a3.7,3.7,0,1,0,3.7,3.7A3.7,3.7,0,0,0,12.985,38.568ZM10.024,50.6h5.921a10.061,10.061,0,0,1,9.706,7.524,10.038,10.038,0,0,1,1.872-.176h5.921A10.035,10.035,0,0,1,43.468,67.973v3.9a1.358,1.358,0,0,1-1.358,1.358H18.857A1.358,1.358,0,0,1,17.5,71.873v-3.9a10.03,10.03,0,0,1,.22-2.092l-16.361,0A1.358,1.358,0,0,1,0,64.525v-3.9A10.035,10.035,0,0,1,10.024,50.6ZM20.215,70.515H40.751V67.973a7.316,7.316,0,0,0-7.307-7.307H27.523a7.316,7.316,0,0,0-7.307,7.307Zm-17.5-7.348H18.729A10.093,10.093,0,0,1,23.065,59a7.372,7.372,0,0,0-7.12-5.679H10.024a7.316,7.316,0,0,0-7.307,7.307Z" transform="translate(0 -35.851)" fill="#60c235"/>
</svg>
