<svg xmlns="http://www.w3.org/2000/svg" width="87.105" height="87.105" viewBox="0 0 87.105 87.105">
  <g id="Group_562" data-name="Group 562" transform="translate(-857.695 -7185.883)">
    <rect id="Rectangle_58" data-name="Rectangle 58" width="87.105" height="87.105" rx="43.553" transform="translate(857.695 7185.883)" fill="#1650ed" opacity="0.2"/>
    <path id="_005-writing" data-name="005-writing" d="M49,21.025,28.428.454a1.545,1.545,0,0,0-2.185,0L17.962,8.734a1.545,1.545,0,0,0,0,2.185L20.2,13.153,3.819,22.247a1.545,1.545,0,0,0-.783,1.16L.012,47.716A1.545,1.545,0,0,0,1.737,49.44l24.308-3.023a1.545,1.545,0,0,0,1.161-.784l9.086-16.384,2.242,2.242a1.545,1.545,0,0,0,2.185,0L49,23.21a1.545,1.545,0,0,0,0-2.185ZM24.883,43.447,5.82,45.818,19.846,31.791a1.545,1.545,0,1,0-2.185-2.185L3.635,43.632,6.006,24.568l16.462-9.142,11.55,11.55ZM39.625,28.213,21.24,9.827l6.1-6.1L45.721,22.117Z" transform="translate(876.858 7205.045)" fill="#1650ed"/>
  </g>
</svg>
