<svg xmlns="http://www.w3.org/2000/svg" width="87.105" height="87.105" viewBox="0 0 87.105 87.105">
  <g id="Group_563" data-name="Group 563" transform="translate(-634 -7185.883)">
    <rect id="Rectangle_59" data-name="Rectangle 59" width="87.105" height="87.105" rx="43.553" transform="translate(634 7185.883)" fill="#60c235" opacity="0.2"/>
    <path id="_007-target" data-name="007-target" d="M49.4,6.644a1.545,1.545,0,0,0-1.093-1.093l-3.471-.93L43.9,1.15A1.545,1.545,0,0,0,41.319.457L37.186,4.589A24.287,24.287,0,1,0,20.642,49.181a24.664,24.664,0,0,0,3.682.278,24.132,24.132,0,0,0,10.968-2.635,1.545,1.545,0,0,0-1.4-2.753A21.2,21.2,0,1,1,34.936,6.839L33.5,8.278a1.545,1.545,0,0,0-.4,1.493l.93,3.472-2.305,2.3a12.153,12.153,0,1,0-.176,19.375L39.119,42.5A1.545,1.545,0,1,0,41.3,40.311l-7.534-7.534a12.163,12.163,0,0,0,.137-15.043l2.305-2.3,3.472.93a1.545,1.545,0,0,0,1.493-.4l1.439-1.439a21.159,21.159,0,0,1,.377,20.628A1.545,1.545,0,1,0,45.719,36.6a24.323,24.323,0,0,0-.853-24.334L49,8.138a1.545,1.545,0,0,0,.4-1.493ZM33.354,25.168a9.062,9.062,0,1,1-3.841-7.412l-6.319,6.319a1.545,1.545,0,1,0,2.185,2.185L31.7,19.942a9,9,0,0,1,1.655,5.227Zm6.268-12.027-2.61-.7-.7-2.61,5.3-5.3.468,1.748a1.545,1.545,0,0,0,1.093,1.093l1.748.468Z" transform="translate(653.163 7205.042)" fill="#60c235"/>
  </g>
</svg>
