<svg xmlns="http://www.w3.org/2000/svg" width="87.105" height="87.105" viewBox="0 0 87.105 87.105">
  <g id="Group_564" data-name="Group 564" transform="translate(-446 -7186)">
    <rect id="Rectangle_60" data-name="Rectangle 60" width="87.105" height="87.105" rx="43.553" transform="translate(446 7186)" fill="#00dae1" opacity="0.2"/>
    <path id="_004-ranking" data-name="004-ranking" d="M47.906,6.165H40.99V1.545A1.545,1.545,0,0,0,39.445,0H10.006A1.545,1.545,0,0,0,8.461,1.545V6.165H1.545A1.545,1.545,0,0,0,0,7.71v7.579a7.593,7.593,0,0,0,7.4,7.758H8.584A16.327,16.327,0,0,0,23.642,37.266V46.36H11.17a1.545,1.545,0,1,0,0,3.091H39.205a1.545,1.545,0,0,0,0-3.091H26.733V37.18A16.338,16.338,0,0,0,40.867,23.047h1.185a7.593,7.593,0,0,0,7.4-7.758V7.71a1.545,1.545,0,0,0-1.545-1.545ZM3.091,15.289V9.255h5.37v10.7H7.4a4.5,4.5,0,0,1-4.308-4.668ZM37.9,21.038a13.174,13.174,0,0,1-26.348,0V3.091H37.9Zm8.461-5.749a4.5,4.5,0,0,1-4.308,4.667H40.99V9.255h5.37Z" transform="translate(465 7205)" fill="#00dae1"/>
  </g>
</svg>
