<svg xmlns="http://www.w3.org/2000/svg" width="45.075" height="45.632" viewBox="0 0 45.075 45.632">
  <path id="rocket" d="M47.78.418A1.426,1.426,0,0,0,46.6.011L34.141,1.516a14.763,14.763,0,0,0-8.856,4.172,40.588,40.588,0,0,0-5.716,7.621c-.832,1.3-1.692,2.649-2.634,4l-3.723-.489A8.845,8.845,0,0,0,5.94,20.081L3.429,23.266a1.426,1.426,0,0,0,.934,2.3l4.575.6a5.216,5.216,0,0,0,.68.043,8.052,8.052,0,0,0,3.225-.757L23.358,35.965c.027.027.056.052.085.077a7.551,7.551,0,0,0-.223,4.083l1.206,4.454a1.426,1.426,0,0,0,2.4.619l2.822-2.914a8.845,8.845,0,0,0,2.263-7.643l-.921-3.4c1.386-.983,2.764-1.87,4.1-2.732a39.857,39.857,0,0,0,7.49-5.668,14.725,14.725,0,0,0,4.1-8.781L48.187,1.6A1.426,1.426,0,0,0,47.78.418ZM9.309,23.336l-2.088-.274.958-1.215a6.025,6.025,0,0,1,4.662-2.2l2.088.274-.958,1.215a6.025,6.025,0,0,1-4.661,2.2Zm16.174,9.146a7.594,7.594,0,0,0-.714.861l-9.475-9.475a7.734,7.734,0,0,0,.916-.968l1.518-1.925,9.6,9.6ZM27.6,40.3l-1.076,1.112-.55-2.032a6.022,6.022,0,0,1,1.559-4.914l1.076-1.112.55,2.032A6.022,6.022,0,0,1,27.6,40.3ZM43.851,13.715c-.755,6.246-4.968,8.958-10.3,12.393-1.3.837-2.636,1.7-4,2.657L19.459,18.672c.9-1.3,1.721-2.587,2.514-3.829,3.472-5.439,6.215-9.735,12.51-10.5L45.138,3.06ZM6.908,34.185a1.426,1.426,0,1,1-2.017-2.017l2.724-2.724a1.426,1.426,0,0,1,2.017,2.017Zm7.285,1.838L9.134,41.081a1.426,1.426,0,0,1-2.017-2.017l5.058-5.058a1.426,1.426,0,1,1,2.017,2.017Zm4.561,2.545a1.426,1.426,0,0,1,0,2.017L16.03,43.307a1.426,1.426,0,1,1-2.017-2.017l2.723-2.723A1.426,1.426,0,0,1,18.754,38.567ZM29.321,10.433a5.971,5.971,0,1,0,8.445,0,5.932,5.932,0,0,0-8.445,0Zm6.428,2.017a3.123,3.123,0,1,1-2.206-.912,3.123,3.123,0,0,1,2.206.912Z" transform="translate(-3.122)" fill="#1650ed"/>
</svg>
