<svg xmlns="http://www.w3.org/2000/svg" width="87.922" height="80.032" viewBox="0 0 87.922 80.032">
  <path id="_008-video-marketing-1" data-name="008-video-marketing-1" d="M15.818,55.094a1.717,1.717,0,0,0,1.717,0L31.449,47.06a1.717,1.717,0,0,0,0-2.974L17.535,36.053a1.717,1.717,0,0,0-2.576,1.487V53.607A1.717,1.717,0,0,0,15.818,55.094Zm2.576-14.58,8.762,5.059-8.762,5.059ZM87.922,71.766A1.717,1.717,0,0,1,86.2,73.483H78.918a1.717,1.717,0,1,1,0-3.434H86.2A1.717,1.717,0,0,1,87.922,71.766ZM72.607,61.581a1.717,1.717,0,0,1,.629-2.346l6.657-3.843a1.717,1.717,0,0,1,1.717,2.974l-6.657,3.843a1.716,1.716,0,0,1-2.346-.629Zm-.13,10.186a7.612,7.612,0,0,0-7.167-7.589V50.921a6.8,6.8,0,0,0-13.46-1.368,42.06,42.06,0,0,1-8.568,5.138,22.606,22.606,0,1,0-37.2,6.291,12.613,12.613,0,0,0,6.537,23.4h.437L15.05,99.628a3.875,3.875,0,0,0,4.664,3.285l3.425-.742a3.854,3.854,0,0,0,3.024-4.279L24.334,83.565C35.5,85.068,45.2,88.732,51.85,93.979a6.8,6.8,0,0,0,13.46-1.368V79.355A7.612,7.612,0,0,0,72.477,71.766ZM51.712,53.907V89.625c-7.095-4.822-16.694-8.16-27.507-9.54V68.118a22.585,22.585,0,0,0,16.093-8.5A52.015,52.015,0,0,0,51.712,53.907ZM22.6,26.4A19.168,19.168,0,1,1,3.434,45.573,19.19,19.19,0,0,1,22.6,26.4ZM3.434,71.766a9.2,9.2,0,0,1,5.334-8.331,22.486,22.486,0,0,0,12,4.667v12.85H12.62A9.2,9.2,0,0,1,3.434,71.766ZM22.412,98.815l-3.425.742a.433.433,0,0,1-.531-.374l-1.935-14.8h4.456l1.78,13.943a.439.439,0,0,1-.344.487Zm39.464-6.2a3.364,3.364,0,0,1-6.729,0V50.921a3.368,3.368,0,0,1,3.364-3.364h0a3.368,3.368,0,0,1,3.364,3.364Zm3.434-16.7V67.621a4.168,4.168,0,0,1,0,8.291Zm16.928,11.6a1.716,1.716,0,0,1-2.346.629L73.236,84.3a1.717,1.717,0,0,1,1.717-2.974l6.657,3.843A1.717,1.717,0,0,1,82.238,87.512Z" transform="translate(0 -22.97)" fill="#1650ed"/>
</svg>
