<svg xmlns="http://www.w3.org/2000/svg" width="87.922" height="78.516" viewBox="0 0 87.922 78.516">
  <path id="_006-video-marketing" data-name="006-video-marketing" d="M81.248,42.255H72.479V32.746a5.365,5.365,0,0,0-5.358-5.359H6.674A6.681,6.681,0,0,0,0,34.061V73.695a6.681,6.681,0,0,0,6.674,6.674H15.1v8.949A1.717,1.717,0,0,0,18.2,90.343l7.431-9.975h5.257v8.194a6.681,6.681,0,0,0,6.674,6.674H62.294l7.431,9.975a1.717,1.717,0,0,0,3.094-1.026V95.237h8.429a6.681,6.681,0,0,0,6.674-6.674V48.929a6.681,6.681,0,0,0-6.674-6.674ZM24.766,76.934a1.718,1.718,0,0,0-1.377.691l-4.851,6.513V78.651a1.717,1.717,0,0,0-1.717-1.717H6.674a3.243,3.243,0,0,1-3.24-3.24V34.061a3.243,3.243,0,0,1,3.24-3.24H67.121a1.926,1.926,0,0,1,1.924,1.925V73.695a3.243,3.243,0,0,1-3.24,3.24ZM84.487,88.563a3.243,3.243,0,0,1-3.24,3.239H71.1a1.717,1.717,0,0,0-1.717,1.717v5.487l-4.851-6.512a1.717,1.717,0,0,0-1.377-.691h-25.6a3.243,3.243,0,0,1-3.239-3.239V80.369H65.805a6.681,6.681,0,0,0,6.674-6.674v-28h8.768a3.243,3.243,0,0,1,3.24,3.239V88.563ZM49.137,52.391,26.784,39.485a1.717,1.717,0,0,0-2.576,1.487v25.81a1.717,1.717,0,0,0,2.576,1.487L49.137,55.365a1.717,1.717,0,0,0,0-2.974ZM27.643,63.809V43.947l17.2,9.931Z" transform="translate(0 -27.387)" fill="#f09920"/>
</svg>
