<svg xmlns="http://www.w3.org/2000/svg" width="87.922" height="87.921" viewBox="0 0 87.922 87.921">
  <path id="_004-public-relation" data-name="004-public-relation" d="M80.491,36.53a7.442,7.442,0,0,0-7.228,5.714H68.138a24.138,24.138,0,0,0-5.874-14.157L65.9,24.455a7.439,7.439,0,1,0-2.428-2.428l-3.632,3.632a24.138,24.138,0,0,0-14.157-5.874V14.66a7.431,7.431,0,1,0-3.435,0v5.124a24.137,24.137,0,0,0-14.157,5.874l-3.632-3.632a7.438,7.438,0,1,0-2.428,2.428l3.632,3.632a24.137,24.137,0,0,0-5.874,14.157H14.66a7.431,7.431,0,1,0,0,3.435h5.124a24.138,24.138,0,0,0,5.874,14.157l-3.632,3.632A7.439,7.439,0,1,0,24.455,65.9l3.632-3.632a24.138,24.138,0,0,0,14.157,5.874v5.124a7.431,7.431,0,1,0,3.435,0V68.138a24.138,24.138,0,0,0,14.157-5.874L63.467,65.9A7.439,7.439,0,1,0,65.9,63.467l-3.632-3.632a24.137,24.137,0,0,0,5.874-14.157h5.124a7.43,7.43,0,1,0,7.229-9.148ZM7.431,47.957a4,4,0,1,1,4-4A4,4,0,0,1,7.431,47.957ZM69.792,14.134a4,4,0,1,1-4,4A4,4,0,0,1,69.792,14.134Zm-29.827-6.7a4,4,0,1,1,4,4,4,4,0,0,1-4-4ZM18.13,22.127a4,4,0,1,1,4-4A4,4,0,0,1,18.13,22.127Zm0,51.661a4,4,0,1,1,4-4A4,4,0,0,1,18.13,73.788Zm29.827,6.7a4,4,0,1,1-4-4A4,4,0,0,1,47.957,80.491Zm21.834-14.7a4,4,0,1,1-4,4A4,4,0,0,1,69.792,65.795ZM43.961,64.765a20.8,20.8,0,1,1,20.8-20.8,20.828,20.828,0,0,1-20.8,20.8Zm36.53-16.808a4,4,0,1,1,4-4A4,4,0,0,1,80.491,47.957ZM43.961,40.7a6.229,6.229,0,1,0-6.229-6.23A6.237,6.237,0,0,0,43.961,40.7Zm0-9.024a2.795,2.795,0,1,1-2.795,2.794,2.8,2.8,0,0,1,2.795-2.794Zm0,10.074a11.493,11.493,0,0,0-11.48,11.48c0,4.252,6.184,5.761,11.48,5.761s11.48-1.509,11.48-5.761A11.493,11.493,0,0,0,43.961,41.751Zm0,13.806c-5.283,0-8.046-1.514-8.046-2.326a8.046,8.046,0,0,1,16.092,0c0,.812-2.763,2.326-8.046,2.326Z" transform="translate(0)" fill="#60c235"/>
</svg>
