<svg xmlns="http://www.w3.org/2000/svg" width="80.273" height="87.922" viewBox="0 0 80.273 87.922">
  <path id="_007-affiliate-marketing" data-name="007-affiliate-marketing" d="M31.9,78.285l-5.068,8.778a1.717,1.717,0,1,1-2.974-1.717l5.068-8.778A1.717,1.717,0,0,1,31.9,78.285Zm12.651-1.717a1.717,1.717,0,0,0-2.974,1.717l5.068,8.778a1.717,1.717,0,1,0,2.974-1.717Zm51.328,0a1.717,1.717,0,1,0-2.974,1.717l5.068,8.778a1.717,1.717,0,1,0,2.974-1.717ZM82.6,75.939a1.717,1.717,0,0,0-2.346.629L75.19,85.346a1.717,1.717,0,1,0,2.974,1.717l5.068-8.778A1.717,1.717,0,0,0,82.6,75.939ZM56.94,40.44a1.717,1.717,0,0,0-2.346.629l-5.068,8.778A1.717,1.717,0,1,0,52.5,51.563l5.068-8.778a1.717,1.717,0,0,0-.629-2.346ZM74.659,52.192a1.717,1.717,0,0,0,.629-2.346l-5.068-8.778a1.717,1.717,0,0,0-2.974,1.717l5.068,8.778a1.716,1.716,0,0,0,2.346.629ZM54.795,7.612a7.613,7.613,0,1,1,7.613,7.613A7.621,7.621,0,0,1,54.795,7.612Zm3.434,0a4.178,4.178,0,1,0,4.178-4.177A4.183,4.183,0,0,0,58.229,7.612ZM71.769,36.8a28.107,28.107,0,0,1-9.363,1.427A28.1,28.1,0,0,1,53.044,36.8c-4.224-1.555-5.11-3.889-5.11-5.574a14.473,14.473,0,0,1,28.945,0C76.879,32.908,75.993,35.243,71.769,36.8ZM62.407,34.79c6.6,0,11.038-1.844,11.038-3.566a11.038,11.038,0,0,0-22.076,0C51.368,32.946,55.8,34.79,62.407,34.79Zm18.052,9.133a7.613,7.613,0,1,1,7.613,7.613,7.621,7.621,0,0,1-7.613-7.613Zm3.434,0a4.178,4.178,0,1,0,4.178-4.177,4.183,4.183,0,0,0-4.178,4.177Zm13.54,29.186a28.106,28.106,0,0,1-9.363,1.427,28.1,28.1,0,0,1-9.362-1.427c-4.224-1.555-5.11-3.89-5.11-5.574a14.473,14.473,0,0,1,28.945,0c0,1.684-.887,4.019-5.11,5.574ZM88.071,71.1c6.6,0,11.038-1.844,11.038-3.566a11.038,11.038,0,0,0-22.076,0C77.032,69.257,81.468,71.1,88.071,71.1ZM51.215,67.534c0,1.685-.886,4.019-5.11,5.574a28.105,28.105,0,0,1-9.362,1.427,28.1,28.1,0,0,1-9.363-1.427c-4.224-1.555-5.11-3.89-5.11-5.574a14.473,14.473,0,0,1,28.945,0Zm-3.434,0a11.038,11.038,0,0,0-22.076,0c0,1.722,4.435,3.566,11.038,3.566S47.781,69.257,47.781,67.534ZM29.13,43.923a7.613,7.613,0,1,1,7.613,7.613A7.621,7.621,0,0,1,29.13,43.923Zm3.434,0a4.178,4.178,0,1,0,4.178-4.177A4.183,4.183,0,0,0,32.565,43.923Z" transform="translate(-22.27)" fill="#00dae1"/>
</svg>
