<svg id="_007-zip" data-name="007-zip" xmlns="http://www.w3.org/2000/svg" width="16.763" height="24" viewBox="0 0 16.763 24">
  <g id="Vrstva_x0020_1_31_" transform="translate(0 0)">
    <path id="Path_3202" data-name="Path 3202" d="M102.667,0h7.5l6.352,7.09V20.879A3.029,3.029,0,0,1,113.6,24H102.667a3.024,3.024,0,0,1-2.914-3.121V3.121A3.019,3.019,0,0,1,102.667,0Z" transform="translate(-99.753 0)" fill="#ffb11f"/>
    <g id="Group_502" data-name="Group 502" transform="translate(3.631 0)">
      <path id="Path_3203" data-name="Path 3203" d="M467.136,0V7.031H473.5Z" transform="translate(-460.363)" fill="#fff" opacity="0.302"/>
      <path id="Path_3204" data-name="Path 3204" d="M230.514,67.2V65.565a.305.305,0,0,0-.3-.317h-.827a.305.305,0,0,0-.3.317V67.2l-.462,1.446a1.4,1.4,0,0,0,.165,1.2,1.191,1.191,0,0,0,2.012,0,1.4,1.4,0,0,0,.165-1.2Zm-.193,2.272a.635.635,0,0,1-1.04,0,.727.727,0,0,1-.083-.62l.152-.487h.9l.158.487A.729.729,0,0,1,230.321,69.475Zm-2.349-13.022v.9a.305.305,0,0,0,.3.317h1.123v1.343h-1.123a.305.305,0,0,0-.3.317v.694a.312.312,0,0,0,.3.325h1.123v1.335h-1.123a.305.305,0,0,0-.3.317v.7a.305.305,0,0,0,.3.317h1.123v1.018a.311.311,0,0,0,.3.317h1.647a.31.31,0,0,0,.3-.317v-.7a.314.314,0,0,0-.3-.317h-1.13V61.684h1.13a.31.31,0,0,0,.3-.317v-.7a.31.31,0,0,0-.3-.317h-1.13V59.013h1.13a.316.316,0,0,0,.3-.325V58a.316.316,0,0,0-.3-.325h-1.13V56.446Z" transform="translate(-227.972 -54.734)" fill="#fff"/>
    </g>
  </g>
</svg>
